<svg width="37" height="55" viewBox="0 0 37 55" fill="none" xmlns="http://www.w3.org/2000/svg">
<rect x="0.486237" width="36.2894" height="55" rx="9" fill="white"/>
<path d="M26.2628 29C26.2628 33.347 22.7388 36.875 18.3878 36.875C14.0369 36.875 10.5128 33.347 10.5128 29C10.5128 24.6491 14.0369 21.125 18.3878 21.125C22.7388 21.125 26.2628 24.6491 26.2628 29Z" fill="#283544"/>
<path d="M22.079 27.0073C22.0361 27.0323 21.0131 27.5614 21.0131 28.7344C21.0613 30.0722 22.304 30.5413 22.3253 30.5413C22.304 30.5664 22.1377 31.1804 21.6451 31.8241C21.2541 32.3785 20.8202 32.9375 20.1613 32.9375C19.5345 32.9375 19.3095 32.568 18.5863 32.568C17.8096 32.568 17.5899 32.9375 16.9952 32.9375C16.3363 32.9375 15.8702 32.3485 15.4579 31.7993C14.9223 31.0805 14.4671 29.9524 14.451 28.8692C14.4402 28.2952 14.5583 27.731 14.8581 27.2518C15.2812 26.5827 16.0365 26.1286 16.8614 26.1136C17.4934 26.0937 18.0559 26.518 18.4416 26.518C18.8113 26.518 19.5024 26.1136 20.2843 26.1136C20.6218 26.1139 21.5218 26.2087 22.079 27.0073ZM18.3882 25.999C18.2757 25.4748 18.5863 24.9507 18.8756 24.6163C19.2452 24.212 19.829 23.9375 20.3325 23.9375C20.3646 24.4617 20.1609 24.9757 19.7969 25.3501C19.4702 25.7545 18.9077 26.0589 18.3882 25.999Z" fill="white"/>
</svg>
