<svg width="181" height="55" viewBox="0 0 181 55" fill="none" xmlns="http://www.w3.org/2000/svg">
<rect width="180.237" height="55" rx="9" fill="#E9F1FF"/>
<path d="M34.2637 28.6847C34.2637 28.0012 34.2101 27.5024 34.0941 26.9852H26.5494V30.0701H30.978C30.8887 30.8367 30.4066 31.9912 29.3351 32.767L29.3201 32.8703L31.7056 34.7819L31.8709 34.799C33.3887 33.3489 34.2637 31.2153 34.2637 28.6847" fill="#4285F4"/>
<path d="M26.5489 36.8125C28.7185 36.8125 30.5399 36.0735 31.8703 34.799L29.3346 32.767C28.6561 33.2565 27.7453 33.5982 26.5489 33.5982C24.4239 33.5982 22.6204 32.1482 21.9775 30.1439L21.8832 30.1522L19.4028 32.138L19.3704 32.2313C20.6918 34.9467 23.4061 36.8125 26.5489 36.8125Z" fill="#34A853"/>
<path d="M21.978 30.144C21.8083 29.6268 21.7102 29.0726 21.7102 28.5C21.7102 27.9273 21.8083 27.3732 21.9691 26.856L21.9646 26.7458L19.453 24.7281L19.3709 24.7686C18.8262 25.8954 18.5137 27.1608 18.5137 28.5C18.5137 29.8392 18.8262 31.1045 19.3709 32.2314L21.978 30.144" fill="#FBBC05"/>
<path d="M26.549 23.4016C28.0579 23.4016 29.0757 24.0759 29.6561 24.6393L31.9239 22.3487C30.5311 21.0095 28.7186 20.1875 26.549 20.1875C23.4061 20.1875 20.6918 22.0532 19.3704 24.7686L21.9686 26.856C22.6204 24.8517 24.424 23.4016 26.549 23.4016" fill="#EB4335"/>
<path d="M53.6159 29.804C53.6159 30.204 53.5199 30.576 53.3279 30.92C53.1359 31.264 52.8439 31.544 52.4519 31.76C52.0599 31.976 51.5759 32.084 50.9999 32.084C50.4399 32.084 49.9399 31.984 49.4999 31.784C49.0679 31.576 48.7199 31.296 48.4559 30.944C48.1999 30.584 48.0519 30.176 48.0119 29.72H49.1759C49.1999 29.96 49.2799 30.196 49.4159 30.428C49.5599 30.652 49.7599 30.84 50.0159 30.992C50.2799 31.136 50.5959 31.208 50.9639 31.208C51.4439 31.208 51.8119 31.08 52.0679 30.824C52.3239 30.568 52.4519 30.24 52.4519 29.84C52.4519 29.496 52.3599 29.216 52.1759 29C51.9999 28.784 51.7799 28.616 51.5159 28.496C51.2519 28.368 50.8919 28.232 50.4359 28.088C49.8999 27.912 49.4679 27.748 49.1399 27.596C48.8199 27.436 48.5439 27.2 48.3119 26.888C48.0879 26.576 47.9759 26.164 47.9759 25.652C47.9759 25.212 48.0799 24.824 48.2879 24.488C48.5039 24.152 48.8079 23.892 49.1999 23.708C49.5999 23.524 50.0679 23.432 50.6039 23.432C51.4359 23.432 52.0959 23.636 52.5839 24.044C53.0719 24.444 53.3559 24.956 53.4359 25.58H52.2599C52.1959 25.244 52.0239 24.948 51.7439 24.692C51.4639 24.436 51.0839 24.308 50.6039 24.308C50.1639 24.308 49.8119 24.424 49.5479 24.656C49.2839 24.88 49.1519 25.2 49.1519 25.616C49.1519 25.944 49.2359 26.212 49.4039 26.42C49.5799 26.62 49.7959 26.78 50.0519 26.9C50.3079 27.012 50.6599 27.14 51.1079 27.284C51.6519 27.46 52.0879 27.628 52.4159 27.788C52.7519 27.948 53.0359 28.192 53.2679 28.52C53.4999 28.84 53.6159 29.268 53.6159 29.804ZM54.8923 23.48C54.8923 23.28 54.9603 23.12 55.0963 23C55.2323 22.872 55.4123 22.808 55.6363 22.808C55.8603 22.808 56.0403 22.872 56.1763 23C56.3123 23.12 56.3803 23.28 56.3803 23.48C56.3803 23.68 56.3123 23.844 56.1763 23.972C56.0403 24.092 55.8603 24.152 55.6363 24.152C55.4123 24.152 55.2323 24.092 55.0963 23.972C54.9603 23.844 54.8923 23.68 54.8923 23.48ZM56.1763 25.412V32H55.0843V25.412H56.1763ZM60.6319 25.328C61.2719 25.328 61.8119 25.488 62.2519 25.808C62.6999 26.128 63.0119 26.556 63.1879 27.092V25.412H64.2799V32.108C64.2799 32.716 64.1519 33.256 63.8959 33.728C63.6399 34.2 63.2799 34.568 62.8159 34.832C62.3519 35.096 61.8119 35.228 61.1959 35.228C60.3079 35.228 59.5839 35.012 59.0239 34.58C58.4639 34.156 58.1079 33.58 57.9559 32.852H59.0359C59.1639 33.292 59.4039 33.636 59.7559 33.884C60.1159 34.14 60.5759 34.268 61.1359 34.268C61.7279 34.268 62.2159 34.076 62.5999 33.692C62.9919 33.316 63.1879 32.788 63.1879 32.108V30.32C63.0119 30.856 62.6999 31.284 62.2519 31.604C61.8119 31.924 61.2719 32.084 60.6319 32.084C60.0479 32.084 59.5279 31.948 59.0719 31.676C58.6159 31.404 58.2559 31.016 57.9919 30.512C57.7359 30 57.6079 29.4 57.6079 28.712C57.6079 28.024 57.7359 27.424 57.9919 26.912C58.2559 26.4 58.6159 26.008 59.0719 25.736C59.5279 25.464 60.0479 25.328 60.6319 25.328ZM60.9439 26.3C60.2719 26.3 59.7319 26.516 59.3239 26.948C58.9239 27.372 58.7239 27.96 58.7239 28.712C58.7239 29.464 58.9239 30.056 59.3239 30.488C59.7319 30.912 60.2719 31.124 60.9439 31.124C61.3759 31.124 61.7599 31.024 62.0959 30.824C62.4399 30.624 62.7079 30.344 62.8999 29.984C63.0919 29.616 63.1879 29.192 63.1879 28.712C63.1879 28.232 63.0919 27.808 62.8999 27.44C62.7079 27.072 62.4399 26.792 62.0959 26.6C61.7599 26.4 61.3759 26.3 60.9439 26.3ZM69.4858 25.304C70.2538 25.304 70.8738 25.552 71.3458 26.048C71.8178 26.536 72.0538 27.244 72.0538 28.172V32H70.9618V28.268C70.9618 27.612 70.7938 27.108 70.4578 26.756C70.1218 26.404 69.6658 26.228 69.0898 26.228C68.4898 26.228 68.0098 26.424 67.6498 26.816C67.2898 27.2 67.1098 27.764 67.1098 28.508V32H66.0178V25.412H67.1098V26.972C67.2778 26.436 67.5738 26.024 67.9978 25.736C68.4298 25.448 68.9258 25.304 69.4858 25.304ZM76.5016 23.48C76.5016 23.28 76.5696 23.12 76.7056 23C76.8416 22.872 77.0216 22.808 77.2456 22.808C77.4696 22.808 77.6496 22.872 77.7856 23C77.9216 23.12 77.9896 23.28 77.9896 23.48C77.9896 23.68 77.9216 23.844 77.7856 23.972C77.6496 24.092 77.4696 24.152 77.2456 24.152C77.0216 24.152 76.8416 24.092 76.7056 23.972C76.5696 23.844 76.5016 23.68 76.5016 23.48ZM77.7856 25.412V32H76.6936V25.412H77.7856ZM83.0093 25.304C83.7773 25.304 84.3973 25.552 84.8693 26.048C85.3413 26.536 85.5773 27.244 85.5773 28.172V32H84.4853V28.268C84.4853 27.612 84.3173 27.108 83.9813 26.756C83.6453 26.404 83.1893 26.228 82.6133 26.228C82.0133 26.228 81.5333 26.424 81.1733 26.816C80.8133 27.2 80.6333 27.764 80.6333 28.508V32H79.5413V25.412H80.6333V26.972C80.8013 26.436 81.0973 26.024 81.5213 25.736C81.9533 25.448 82.4493 25.304 83.0093 25.304ZM99.2651 25.412L97.3691 32H96.1931L94.3811 26.636L92.5571 32H91.3691L89.4971 25.412H90.6011L92.0051 30.956L93.8291 25.412H94.9691L96.8051 30.944L98.2211 25.412H99.2651ZM100.091 23.48C100.091 23.28 100.159 23.12 100.295 23C100.431 22.872 100.611 22.808 100.835 22.808C101.059 22.808 101.239 22.872 101.375 23C101.511 23.12 101.579 23.28 101.579 23.48C101.579 23.68 101.511 23.844 101.375 23.972C101.239 24.092 101.059 24.152 100.835 24.152C100.611 24.152 100.431 24.092 100.295 23.972C100.159 23.844 100.091 23.68 100.091 23.48ZM101.375 25.412V32H100.283V25.412H101.375ZM106.275 31.04V32H105.459C104.787 32 104.283 31.84 103.947 31.52C103.619 31.2 103.455 30.664 103.455 29.912V26.36H102.471V25.412H103.455V23.768H104.559V25.412H106.263V26.36H104.559V29.936C104.559 30.36 104.635 30.652 104.787 30.812C104.947 30.964 105.219 31.04 105.603 31.04H106.275ZM111.076 25.304C111.844 25.304 112.464 25.552 112.936 26.048C113.408 26.536 113.644 27.244 113.644 28.172V32H112.552V28.268C112.552 27.612 112.384 27.108 112.048 26.756C111.712 26.404 111.256 26.228 110.68 26.228C110.08 26.228 109.6 26.424 109.24 26.816C108.88 27.2 108.7 27.764 108.7 28.508V32H107.608V23.12H108.7V26.972C108.868 26.436 109.164 26.024 109.588 25.736C110.02 25.448 110.516 25.304 111.076 25.304ZM122.123 23.456C123.107 23.456 123.931 23.7 124.595 24.188C125.267 24.676 125.719 25.34 125.951 26.18H124.799C124.599 25.668 124.263 25.256 123.791 24.944C123.327 24.632 122.775 24.476 122.135 24.476C121.559 24.476 121.043 24.612 120.587 24.884C120.131 25.148 119.771 25.528 119.507 26.024C119.251 26.52 119.123 27.104 119.123 27.776C119.123 28.464 119.255 29.06 119.519 29.564C119.783 30.06 120.147 30.444 120.611 30.716C121.083 30.98 121.623 31.112 122.231 31.112C122.751 31.112 123.227 31 123.659 30.776C124.091 30.552 124.443 30.228 124.715 29.804C124.995 29.372 125.163 28.868 125.219 28.292H121.895V27.476H126.143V28.484C126.071 29.156 125.863 29.764 125.519 30.308C125.175 30.852 124.711 31.284 124.127 31.604C123.543 31.924 122.879 32.084 122.135 32.084C121.319 32.084 120.599 31.904 119.975 31.544C119.351 31.176 118.863 30.668 118.511 30.02C118.167 29.364 117.995 28.616 117.995 27.776C117.995 26.936 118.167 26.192 118.511 25.544C118.863 24.888 119.351 24.376 119.975 24.008C120.599 23.64 121.315 23.456 122.123 23.456ZM130.611 25.328C131.243 25.328 131.807 25.464 132.303 25.736C132.807 26.008 133.199 26.4 133.479 26.912C133.767 27.424 133.911 28.024 133.911 28.712C133.911 29.4 133.767 30 133.479 30.512C133.199 31.016 132.807 31.404 132.303 31.676C131.807 31.948 131.243 32.084 130.611 32.084C129.979 32.084 129.411 31.948 128.907 31.676C128.411 31.404 128.019 31.016 127.731 30.512C127.443 30 127.299 29.4 127.299 28.712C127.299 28.024 127.443 27.424 127.731 26.912C128.019 26.4 128.411 26.008 128.907 25.736C129.411 25.464 129.979 25.328 130.611 25.328ZM130.611 26.288C130.219 26.288 129.855 26.376 129.519 26.552C129.191 26.728 128.923 27 128.715 27.368C128.515 27.728 128.415 28.176 128.415 28.712C128.415 29.24 128.515 29.688 128.715 30.056C128.923 30.416 129.191 30.684 129.519 30.86C129.855 31.036 130.219 31.124 130.611 31.124C131.003 31.124 131.363 31.036 131.691 30.86C132.027 30.684 132.295 30.416 132.495 30.056C132.703 29.688 132.807 29.24 132.807 28.712C132.807 28.176 132.703 27.728 132.495 27.368C132.295 27 132.027 26.728 131.691 26.552C131.363 26.376 131.003 26.288 130.611 26.288ZM138.322 25.328C138.954 25.328 139.518 25.464 140.014 25.736C140.518 26.008 140.91 26.4 141.19 26.912C141.478 27.424 141.622 28.024 141.622 28.712C141.622 29.4 141.478 30 141.19 30.512C140.91 31.016 140.518 31.404 140.014 31.676C139.518 31.948 138.954 32.084 138.322 32.084C137.69 32.084 137.122 31.948 136.618 31.676C136.122 31.404 135.73 31.016 135.442 30.512C135.154 30 135.01 29.4 135.01 28.712C135.01 28.024 135.154 27.424 135.442 26.912C135.73 26.4 136.122 26.008 136.618 25.736C137.122 25.464 137.69 25.328 138.322 25.328ZM138.322 26.288C137.93 26.288 137.566 26.376 137.23 26.552C136.902 26.728 136.634 27 136.426 27.368C136.226 27.728 136.126 28.176 136.126 28.712C136.126 29.24 136.226 29.688 136.426 30.056C136.634 30.416 136.902 30.684 137.23 30.86C137.566 31.036 137.93 31.124 138.322 31.124C138.714 31.124 139.074 31.036 139.402 30.86C139.738 30.684 140.006 30.416 140.206 30.056C140.414 29.688 140.518 29.24 140.518 28.712C140.518 28.176 140.414 27.728 140.206 27.368C140.006 27 139.738 26.728 139.402 26.552C139.074 26.376 138.714 26.288 138.322 26.288ZM145.745 25.328C146.385 25.328 146.925 25.488 147.365 25.808C147.813 26.128 148.125 26.556 148.301 27.092V25.412H149.393V32.108C149.393 32.716 149.265 33.256 149.009 33.728C148.753 34.2 148.393 34.568 147.929 34.832C147.465 35.096 146.925 35.228 146.309 35.228C145.421 35.228 144.697 35.012 144.137 34.58C143.577 34.156 143.221 33.58 143.069 32.852H144.149C144.277 33.292 144.517 33.636 144.869 33.884C145.229 34.14 145.689 34.268 146.249 34.268C146.841 34.268 147.329 34.076 147.713 33.692C148.105 33.316 148.301 32.788 148.301 32.108V30.32C148.125 30.856 147.813 31.284 147.365 31.604C146.925 31.924 146.385 32.084 145.745 32.084C145.161 32.084 144.641 31.948 144.185 31.676C143.729 31.404 143.369 31.016 143.105 30.512C142.849 30 142.721 29.4 142.721 28.712C142.721 28.024 142.849 27.424 143.105 26.912C143.369 26.4 143.729 26.008 144.185 25.736C144.641 25.464 145.161 25.328 145.745 25.328ZM146.057 26.3C145.385 26.3 144.845 26.516 144.437 26.948C144.037 27.372 143.837 27.96 143.837 28.712C143.837 29.464 144.037 30.056 144.437 30.488C144.845 30.912 145.385 31.124 146.057 31.124C146.489 31.124 146.873 31.024 147.209 30.824C147.553 30.624 147.821 30.344 148.013 29.984C148.205 29.616 148.301 29.192 148.301 28.712C148.301 28.232 148.205 27.808 148.013 27.44C147.821 27.072 147.553 26.792 147.209 26.6C146.873 26.4 146.489 26.3 146.057 26.3ZM152.223 23.12V32H151.131V23.12H152.223ZM160.039 28.34C160.039 28.572 160.023 28.772 159.991 28.94H154.723C154.747 29.692 154.959 30.256 155.359 30.632C155.767 31.008 156.263 31.196 156.847 31.196C157.375 31.196 157.815 31.064 158.167 30.8C158.527 30.528 158.747 30.168 158.827 29.72H159.991C159.911 30.176 159.731 30.584 159.451 30.944C159.179 31.304 158.823 31.584 158.383 31.784C157.943 31.984 157.447 32.084 156.895 32.084C156.263 32.084 155.703 31.948 155.215 31.676C154.727 31.404 154.343 31.016 154.063 30.512C153.791 30 153.655 29.4 153.655 28.712C153.655 28.024 153.791 27.424 154.063 26.912C154.343 26.4 154.727 26.008 155.215 25.736C155.703 25.464 156.263 25.328 156.895 25.328C157.535 25.328 158.091 25.464 158.563 25.736C159.043 26.008 159.407 26.372 159.655 26.828C159.911 27.284 160.039 27.788 160.039 28.34ZM158.935 28.412C158.959 27.924 158.879 27.516 158.695 27.188C158.511 26.86 158.259 26.616 157.939 26.456C157.619 26.296 157.271 26.216 156.895 26.216C156.295 26.216 155.791 26.404 155.383 26.78C154.975 27.148 154.755 27.692 154.723 28.412H158.935Z" fill="#4285F4"/>
</svg>
