<svg xmlns="http://www.w3.org/2000/svg" version="1.1" xmlns:xlink="http://www.w3.org/1999/xlink" xmlns:svgjs="http://svgjs.dev/svgjs" width="1500" height="1430" viewBox="0 0 1500 1430"><g transform="matrix(1,0,0,1,0.6946361788264994,0.5789473684210407)"><svg viewBox="0 0 259 247" data-background-color="#ffffff" preserveAspectRatio="xMidYMid meet" height="1430" width="1500" xmlns="http://www.w3.org/2000/svg" xmlns:xlink="http://www.w3.org/1999/xlink"><g id="tight-bounds" transform="matrix(1,0,0,1,-0.11994051354403723,-0.09999999999999432)"><svg viewBox="0 0 259.2398810270881 247.2" height="247.2" width="259.2398810270881"><g><svg viewBox="0 0 395.52 377.1508597081315" height="247.2" width="259.2398810270881"><g transform="matrix(1,0,0,1,0,274.93265249043657)"><svg viewBox="0 0 395.52 102.21820721769497" height="102.21820721769497" width="395.52"><g id="textblocktransform"><svg viewBox="0 0 395.52 102.21820721769497" height="102.21820721769497" width="395.52" id="textblock"><g><svg viewBox="0 0 395.52 102.21820721769497" height="102.21820721769497" width="395.52"><g transform="matrix(1,0,0,1,0,0)"><svg width="395.52" viewBox="3.6 -32.65 171.79 44.4" height="102.21820721769497" data-palette-color="#113f67"><path d="M7.35-20.3L7.35 0 3.6 0 3.6-25 7.3-25 7.3-23.25Q11.05-25.5 14.6-25.5L14.6-25.5Q19.25-25.5 21.1-22.95L21.1-22.95Q22.75-23.95 25.38-24.73 28-25.5 30-25.5L30-25.5Q35-25.5 36.73-22.83 38.45-20.15 38.45-13.2L38.45-13.2 38.45 0 34.7 0 34.7-13.1Q34.7-18.3 33.7-20.23 32.7-22.15 29.45-22.15L29.45-22.15Q27.8-22.15 26.05-21.68 24.3-21.2 23.35-20.75L23.35-20.75 22.4-20.3Q23.05-18.65 23.05-13L23.05-13 23.05 0 19.3 0 19.3-12.9Q19.3-18.3 18.32-20.23 17.35-22.15 14.05-22.15L14.05-22.15Q12.45-22.15 10.78-21.68 9.1-21.2 8.2-20.75L8.2-20.75 7.35-20.3ZM63.05-17.45L63.05-17.45 63.05-4.65Q63.2-2.8 65.95-2.45L65.95-2.45 65.8 0.5Q61.85 0.5 59.85-1.5L59.85-1.5Q55.35 0.5 50.85 0.5L50.85 0.5Q47.4 0.5 45.6-1.45 43.8-3.4 43.8-7.05 43.8-10.7 45.65-12.43 47.5-14.15 51.45-14.55L51.45-14.55 59.3-15.3 59.3-17.45Q59.3-20 58.2-21.1 57.1-22.2 55.2-22.2L55.2-22.2Q51.2-22.2 46.9-21.7L46.9-21.7 45.35-21.55 45.2-24.4Q50.7-25.5 54.95-25.5 59.2-25.5 61.12-23.55 63.05-21.6 63.05-17.45ZM47.65-7.25L47.65-7.25Q47.65-2.65 51.45-2.65L51.45-2.65Q54.85-2.65 58.15-3.8L58.15-3.8 59.3-4.2 59.3-12.45 51.9-11.75Q49.65-11.55 48.65-10.45 47.65-9.35 47.65-7.25ZM83.4-25L83.4-21.75 75.45-21.75 75.45-9.8Q75.45-5.5 76.07-4.15 76.7-2.8 79.05-2.8L79.05-2.8 83.5-3.1 83.75 0Q80.4 0.55 78.65 0.55L78.65 0.55Q74.75 0.55 73.25-1.35 71.75-3.25 71.75-8.6L71.75-8.6 71.75-21.75 68.2-21.75 68.2-25 71.75-25 71.75-32.65 75.45-32.65 75.45-25 83.4-25ZM97.64 11.75L97.64 11.75Q91.64 11.75 89.27 10.13 86.89 8.5 86.89 4.2L86.89 4.2Q86.89 2.15 87.79 0.88 88.69-0.4 90.84-2L90.84-2Q89.44-2.95 89.44-5.45L89.44-5.45Q89.44-6.3 90.69-8.6L90.69-8.6 91.14-9.4Q87.19-11.2 87.19-16.95L87.19-16.95Q87.19-25.5 96.54-25.5L96.54-25.5Q98.94-25.5 100.99-25L100.99-25 101.74-24.85 109.14-25.05 109.14-21.85 104.39-21.95Q106.04-20.3 106.04-16.95L106.04-16.95Q106.04-12.25 103.72-10.38 101.39-8.5 96.39-8.5L96.39-8.5Q95.04-8.5 93.94-8.7L93.94-8.7Q93.04-6.5 93.04-5.85L93.04-5.85Q93.04-4.3 93.99-3.93 94.94-3.55 99.74-3.55 104.54-3.55 106.64-2.05 108.74-0.55 108.74 3.8L108.74 3.8Q108.74 11.75 97.64 11.75ZM90.59 3.9L90.59 3.9Q90.59 6.55 92.07 7.58 93.54 8.6 97.52 8.6 101.49 8.6 103.22 7.5 104.94 6.4 104.94 3.83 104.94 1.25 103.69 0.5 102.44-0.25 98.79-0.25L98.79-0.25 93.39-0.5Q91.74 0.7 91.17 1.6 90.59 2.5 90.59 3.9ZM90.94-16.95Q90.94-14 92.27-12.75 93.59-11.5 96.64-11.5 99.69-11.5 100.99-12.75 102.29-14 102.29-16.98 102.29-19.95 100.99-21.2 99.69-22.45 96.64-22.45 93.59-22.45 92.27-21.18 90.94-19.9 90.94-16.95ZM131.34-17.45L131.34-17.45 131.34-4.65Q131.49-2.8 134.24-2.45L134.24-2.45 134.09 0.5Q130.14 0.5 128.14-1.5L128.14-1.5Q123.64 0.5 119.14 0.5L119.14 0.5Q115.69 0.5 113.89-1.45 112.09-3.4 112.09-7.05 112.09-10.7 113.94-12.43 115.79-14.15 119.74-14.55L119.74-14.55 127.59-15.3 127.59-17.45Q127.59-20 126.49-21.1 125.39-22.2 123.49-22.2L123.49-22.2Q119.49-22.2 115.19-21.7L115.19-21.7 113.64-21.55 113.49-24.4Q118.99-25.5 123.24-25.5 127.49-25.5 129.42-23.55 131.34-21.6 131.34-17.45ZM115.94-7.25L115.94-7.25Q115.94-2.65 119.74-2.65L119.74-2.65Q123.14-2.65 126.44-3.8L126.44-3.8 127.59-4.2 127.59-12.45 120.19-11.75Q117.94-11.55 116.94-10.45 115.94-9.35 115.94-7.25ZM142.49 0L138.74 0 138.74-25 142.44-25 142.44-21.6Q146.79-24.6 151.59-25.55L151.59-25.55 151.59-21.75Q149.49-21.35 147.21-20.5 144.94-19.65 143.74-19L143.74-19 142.49-18.35 142.49 0ZM160.79 0L153.69-25 157.44-25 163.69-3.25 165.34-3.25 171.64-25 175.39-25 164.99 11.1 161.24 11.1 164.49 0 160.79 0Z" opacity="1" transform="matrix(1,0,0,1,0,0)" fill="#113f67" class="wordmark-text-0" data-fill-palette-color="primary" id="text-0"></path></svg></g></svg></g></svg></g></svg></g><g transform="matrix(1,0,0,1,84.42493924190627,0)"><svg viewBox="0 0 226.67012151618744 226.67012151618744" height="226.67012151618744" width="226.67012151618744"><g><svg></svg></g><g id="icon-0"><svg viewBox="0 0 226.67012151618744 226.67012151618744" height="226.67012151618744" width="226.67012151618744"><g><path d="M0 113.335c0-62.593 50.742-113.335 113.335-113.335 62.593 0 113.335 50.742 113.335 113.335 0 62.593-50.742 113.335-113.335 113.335-62.593 0-113.335-50.742-113.335-113.335zM113.335 217.452c57.502 0 104.117-46.615 104.117-104.117 0-57.502-46.615-104.117-104.117-104.117-57.502 0-104.117 46.615-104.117 104.117 0 57.502 46.615 104.117 104.117 104.117z" data-fill-palette-color="accent" fill="#87c0cd" stroke="transparent"></path><ellipse rx="112.20171015051278" ry="112.20171015051278" cx="113.33506075809372" cy="113.33506075809372" fill="#87c0cd" stroke="transparent" stroke-width="0" fill-opacity="1" data-fill-palette-color="accent"></ellipse></g><g transform="matrix(1,0,0,1,67.12125239527995,48.3552360788502)"><svg viewBox="0 0 92.42761672562754 129.95964935848704" height="129.95964935848704" width="92.42761672562754"><g><svg xmlns="http://www.w3.org/2000/svg" xmlns:xlink="http://www.w3.org/1999/xlink" version="1.1" x="0" y="0" viewBox="20.699 9.25 58.852000000000004 82.75" enable-background="new 0 0 100 100" xml:space="preserve" height="129.95964935848704" width="92.42761672562754" class="icon-cg-0" data-fill-palette-color="quaternary" id="cg-0"><g fill="#ffffff" data-fill-palette-color="quaternary"><path d="M54.065 38.914c0-0.953-0.276-1.641-0.839-2.062-0.359-0.269-0.925-0.538-1.692-0.804v6.031c0.562-0.139 1.069-0.39 1.506-0.775C53.725 40.695 54.065 39.898 54.065 38.914z" fill="#ffffff" data-fill-palette-color="quaternary"></path><path d="M20.699 9.25V92h58.852V9.25H20.699zM44.887 25.523c1.031-0.927 2.31-1.422 3.826-1.497v-4.884c0-0.779 0.633-1.41 1.408-1.41 0.781 0 1.413 0.631 1.413 1.41v5.294c0.715 0.259 1.405 0.637 2.069 1.138v-1.346h2.46v6.106h-2.46v-1.403c-0.569-0.857-1.263-1.469-2.069-1.852v5.591c1.124 0.329 1.983 0.643 2.576 0.938 0.802 0.402 1.491 1.07 2.07 2.005 0.578 0.936 0.869 2.011 0.869 3.228 0 1.716-0.609 3.136-1.817 4.256-1.026 0.947-2.262 1.49-3.698 1.634v3.223c0 0.779-0.632 1.41-1.413 1.41-0.775 0-1.408-0.631-1.408-1.41v-3.472c-1.044-0.312-2.018-0.874-2.922-1.689v1.664h-2.52v-7.308h2.52v1.78c0.806 1.465 1.782 2.429 2.922 2.914v-6.624c-1.137-0.342-2.026-0.671-2.662-0.985-0.87-0.43-1.562-1.042-2.078-1.838-0.515-0.796-0.774-1.74-0.774-2.83C43.2 27.878 43.761 26.532 44.887 25.523zM67.602 82.142H32.649c-0.99 0-1.792-0.803-1.792-1.792 0-0.99 0.802-1.793 1.792-1.793h34.953c0.989 0 1.792 0.803 1.792 1.793C69.394 81.339 68.591 82.142 67.602 82.142zM67.602 70.192H32.649c-0.99 0-1.792-0.803-1.792-1.793 0-0.989 0.802-1.792 1.792-1.792h34.953c0.989 0 1.792 0.803 1.792 1.792C69.394 69.39 68.591 70.192 67.602 70.192zM67.602 58.243H32.649c-0.99 0-1.792-0.804-1.792-1.793s0.802-1.792 1.792-1.792h34.953c0.989 0 1.792 0.803 1.792 1.792S68.591 58.243 67.602 58.243z" fill="#ffffff" data-fill-palette-color="quaternary"></path><path d="M47.514 31.506c0.258 0.106 0.661 0.239 1.199 0.396v-5.264c-0.796 0.081-1.44 0.316-1.91 0.722-0.588 0.506-0.883 1.112-0.883 1.815 0 0.541 0.15 1.016 0.449 1.426C46.669 31.012 47.048 31.312 47.514 31.506z" fill="#ffffff" data-fill-palette-color="quaternary"></path></g></svg></g></svg></g></svg></g></svg></g><g></g></svg></g><defs></defs></svg><rect width="259.2398810270881" height="247.2" fill="none" stroke="none" visibility="hidden"></rect></g></svg></g></svg>